<svg xmlns="http://www.w3.org/2000/svg" xmlns:xlink="http://www.w3.org/1999/xlink" version="1.1" id="Layer_1" x="0px" y="0px" width="79px" height="71.75px" viewBox="0 0 79 71.75" enable-background="new 0 0 79 71.75" xml:space="preserve"><style>.style0{fill:	#FFFFFF;}.style1{stop-color:	#00C3FF;}.style2{stop-color:	#004599;}.style3{fill:	url(#SVGID_1_);}.style4{stop-color:	#FFA100;}.style5{stop-color:	#FF0000;}.style6{fill:	url(#SVGID_2_);}.style7{fill:	url(#SVGID_3_);}.style8{fill:	url(#SVGID_4_);}</style><path d="M28.63 52.249c5.743-2.485 11.429-11.615 10.157-15.849c-3.158 1.575-6.333 3.159-9.582 4.8 C31.495 44.8 31.4 48.5 28.6 52.249z" class="style0"/><path d="M17.384 15.022C12.888 13.9 3.6 19.7 1.6 25.118c3.691-2.717 7.407-2.823 11.009-0.525 C14.25 21.3 15.8 18.2 17.4 15.022z" class="style0"/><radialGradient id="SVGID_1_" cx="237.5" cy="-229.6" r="35.5" gradientTransform="matrix(1 0 0 -1 -206 -224)" gradientUnits="userSpaceOnUse"><stop offset="0" class="style1"/><stop offset="1" class="style2"/></radialGradient><path d="M52.294 4.799c-0.04 11.547-5.095 20.479-14.312 27.203c-3.368 2.457-7.052 4.327-10.941 5.8 c-0.548 0.21-0.88 0.117-1.287-0.293c-3.149-3.184-6.333-6.335-9.474-9.527c-0.237-0.241-0.415-0.792-0.307-1.083 c3.598-9.788 9.507-17.634 19.055-22.336c5.111-2.518 10.569-3.365 16.231-3.125c0.771 0 1.1 0.3 1 1.1 C52.275 3.3 52.3 4 52.3 4.799z M44.191 14.321c0.016-2.6-2.042-4.705-4.625-4.729c-2.572-0.024-4.709 2.07-4.732 4.6 c-0.024 2.6 2.1 4.7 4.6 4.718C42.08 19 44.2 16.9 44.2 14.321z M31.668 19.3 c-1.583 0.005-2.837 1.274-2.817 2.852c0.019 1.5 1.3 2.8 2.8 2.779c1.599 0 2.849-1.211 2.855-2.804 C34.506 20.5 33.3 19.3 31.7 19.301z" class="style3"/><radialGradient id="SVGID_2_" cx="239.6" cy="-263.9" r="12.1" gradientTransform="matrix(1 0 0 -1 -206 -224)" gradientUnits="userSpaceOnUse"><stop offset="0" class="style4"/><stop offset="1" class="style5"/></radialGradient><path d="M28.63 52.249c2.744-3.765 2.865-7.425 0.575-11.067c3.25-1.622 6.424-3.206 9.583-4.781 C40.059 40.6 34.4 49.8 28.6 52.249z" class="style6"/><radialGradient id="SVGID_3_" cx="216.3" cy="-241.6" r="11.8" gradientTransform="matrix(1 0 0 -1 -206 -224)" gradientUnits="userSpaceOnUse"><stop offset="0" class="style4"/><stop offset="1" class="style5"/></radialGradient><path d="M17.384 15.022c-1.563 3.139-3.134 6.293-4.766 9.57C9.017 22.3 5.3 22.4 1.6 25.1 C3.615 19.7 12.9 13.9 17.4 15.022z" class="style7"/><radialGradient id="SVGID_4_" cx="218.1" cy="-257.5" r="61.7" gradientTransform="matrix(1 0 0 -1 -206 -224)" gradientUnits="userSpaceOnUse"><stop offset="0" class="style4"/><stop offset="1" class="style5"/></radialGradient><path d="M24.625 38.795c0.006-0.006-0.031 0.032-0.028 0.025c0.003-0.009-0.03 0.022-0.074 0.1 c-0.09 0.084-0.237 0.226-0.436 0.431c-0.397 0.406-0.996 1.051-1.714 1.922c-0.714 0.872-1.553 1.97-2.382 3.3 c-0.827 1.304-1.656 2.816-2.292 4.474c-0.318 0.828-0.586 1.69-0.776 2.571c-0.039 0.219-0.093 0.442-0.127 0.7 c-0.032 0.209-0.065 0.42-0.098 0.634l-0.043 0.448l-0.031 0.265c-0.016 0.216-0.031 0.448-0.035 0.7 c-0.043 1.8 0.3 3.5 1.3 4.987c0.478 0.7 1.1 1.4 1.9 1.949c0.403 0.3 0.8 0.5 1.3 0.771l0.371 0.2 c0.075 0 0.4 0.1 0.5 0.172c0.229 0.1 0.6 0.2 0.8 0.287c2.402 0.7 5.2 1.1 8.1 1.2 c2.876 0.1 5.8 0 8.748-0.235c2.919-0.241 5.804-0.611 8.595-1.048c5.583-0.878 10.779-2.021 15.203-3.126 c4.425-1.108 8.083-2.186 10.617-3.014c1.269-0.413 2.256-0.766 2.919-1.03c0.662-0.259 1-0.459 0.959-0.495 c0.045 0.032-0.269 0.282-0.895 0.629c-0.626 0.356-1.561 0.843-2.768 1.429c-2.414 1.171-5.91 2.747-10.188 4.5 c-4.279 1.717-9.338 3.581-14.905 5.261c-2.784 0.837-5.696 1.626-8.714 2.297c-3.018 0.669-6.138 1.228-9.36 1.5 c-3.224 0.3-6.55 0.393-10.021-0.156c-0.441-0.073-0.848-0.146-1.339-0.256c-0.269-0.061-0.34-0.071-0.625-0.142l-0.69-0.183 c-0.918-0.262-1.832-0.599-2.721-1.02c-1.778-0.837-3.451-2.027-4.832-3.479c-1.385-1.448-2.467-3.137-3.229-4.868 c-0.767-1.734-1.227-3.509-1.474-5.221c-0.064-0.431-0.108-0.85-0.148-1.279c-0.024-0.406-0.048-0.81-0.073-1.21l-0.007-0.119 l-0.001-0.031c-0.002 0.1 0.001-0.122 0.001-0.117V52.3l0.002-0.306c0.002-0.203 0.004-0.406 0.006-0.608 c0.007-0.404 0.038-0.797 0.059-1.192c0.114-1.567 0.363-3.038 0.683-4.407c0.646-2.738 1.557-5.066 2.467-7.046 c0.915-1.979 1.848-3.604 2.66-4.92c0.816-1.312 1.521-2.312 2.036-3.006c0.257-0.346 0.47-0.619 0.624-0.812 c0.179-0.217 0.272-0.329 0.272-0.329L24.625 38.795z" class="style8"/></svg>